<svg xmlns:dc="http://purl.org/dc/elements/1.1/" xmlns:cc="http://creativecommons.org/ns#" xmlns:rdf="http://www.w3.org/1999/02/22-rdf-syntax-ns#" xmlns:svg="http://www.w3.org/2000/svg" xmlns="http://www.w3.org/2000/svg" version="1.1" viewBox="0 0 47.999997 47.999997" x="0px" y="0px">
<path d="m 23.999998,0.00391 c -3.635,0 -7.2709,1.31329 -10.1348,3.9375 -5.6143999,5.14468 -6.4483999,13.67404 -2.0254,19.81445 2.0585,2.65139 3.1602,5.90504 3.1602,9.24414 0,0.79526 0.3166,1.55876 0.8789,2.12109 0.5623,0.56234 1.3258,0.87891 2.1211,0.87891 l 10,0 c 0.3589,0 0.6878,0.18921 0.8672,0.5 0.09,0.15657 0.1335,0.3264 0.1328,0.5 l 0.033,7 c 0,1.11641 -0.8836,2 -2,2 l -1.0195,0 -5.0137,0 c -1.1164,0 -2,-0.88359 -2,-2 l 0,-5 c -3e-4,-0.35698 -0.1908,-0.68674 -0.5,-0.86523 -0.3094,-0.17863 -0.6906,-0.17863 -1,0 -0.3092,0.17849 -0.4997,0.50825 -0.5,0.86523 l 0,5.21875 c 0,2.08722 1.8775,3.78125 4,3.78125 l 5.0332,0 1,0 c 2.1225,0 4.01,-1.69405 4,-3.78125 L 30.999998,37 c 7e-4,-0.51967 -0.1321,-1.03536 -0.4004,-1.5 -0.5351,-0.92625 -1.5294,-1.5 -2.5996,-1.5 l -10,0 c -0.2656,0 -0.5192,-0.10516 -0.707,-0.29297 -0.1878,-0.18781 -0.293,-0.44143 -0.293,-0.70703 0,-3.62777 -1.1742,-7.15131 -3.3223,-10.08008 -4.1088,-5.35475 -3.4372,-12.944 1.5391,-17.5039 2.4881,-2.27996 5.6357,-3.41993 8.7832,-3.41993 3.1475,0 6.2951,1.13997 8.7832,3.41993 4.9763,4.5599 5.6403,12.14329 1.5313,17.49804 -1.7104,2.33189 -2.7845,5.04657 -3.1563,7.88672 -0.01,0.0478 -0.1572,1.15079 -0.1582,1.19922 a 1,1 0 0 0 0.5,0.86523 1,1 0 0 0 1,0 1,1 0 0 0 0.5,-0.86523 l 0.1465,-1 c 0.3528,-2.62016 1.3816,-5.11908 3.0254,-7.23633 4.4231,-6.14041 3.5774,-14.67758 -2.0371,-19.82226 -2.8638,-2.62421 -6.4997,-3.9375 -10.1348,-3.9375 z m 0,4.99414 c -0.5523,10e-6 -1,0.44773 -1,1 0,0.55228 0.4477,1 1,1 2.4868,0 4.8299,1.15596 6.3438,3.1289 0.3362,0.43814 0.9642,0.52175 1.4023,0.18555 0.4381,-0.33621 0.5198,-0.96419 0.1836,-1.4023399 C 30.038298,6.44524 27.106998,4.99805 23.999998,4.99805 Z m 8.8262,6.67773 c -0.1287,-0.0179 -0.2631,-0.0103 -0.3965,0.0254 -0.5335,0.14294 -0.85,0.69115 -0.707,1.22461 0.1808,0.67501 0.2734,1.37149 0.2734,2.07031 0,0.55228 0.4477,1 1,1 0.5523,0 1,-0.44772 1,-1 0,-0.8736 -0.1137,-1.74405 -0.3398,-2.58789 -0.1072,-0.40009 -0.4441,-0.67868 -0.8301,-0.73242 z" style="color:#10ac84;font-style:normal;font-variant:normal;font-weight:normal;font-stretch:normal;font-size:medium;line-height:normal;font-family:sans-serif;text-indent:0;text-align:start;text-decoration:none;text-decoration-line:none;text-decoration-style:solid;text-decoration-color:#10ac84;letter-spacing:normal;word-spacing:normal;text-transform:none;direction:ltr;block-progression:tb;writing-mode:lr-tb;baseline-shift:baseline;text-anchor:start;white-space:normal;clip-rule:nonzero;display:inline;overflow:visible;visibility:visible;opacity:1;isolation:auto;mix-blend-mode:normal;color-interpolation:sRGB;color-interpolation-filters:linearRGB;solid-color:#10ac84;solid-opacity:1;fill:#10ac84;fill-opacity:1;fill-rule:evenodd;stroke:none;stroke-width:1.99999976;stroke-linecap:round;stroke-linejoin:miter;stroke-miterlimit:4;stroke-dasharray:none;stroke-dashoffset:0;stroke-opacity:1;color-rendering:auto;image-rendering:auto;shape-rendering:auto;text-rendering:auto;enable-background:accumulate"/>
</svg>