<svg xmlns="http://www.w3.org/2000/svg" xmlns:xlink="http://www.w3.org/1999/xlink" version="1.1" x="0px" y="0px" viewBox="0 0 24 24" style="enable-background:new 0 0 24 24;" xml:space="preserve"><g><path d="M19.8,7.5h-3.3c-0.7,0-1.4-0.2-2-0.6L11,4.5C10.5,4.2,10,4,9.5,4H4.4C3.1,4,2,5.1,2,6.4v11.1C2,18.9,3.1,20,4.4,20h15.1   c1.3,0,2.4-1.1,2.4-2.4V9.8C22,8.5,21,7.5,19.8,7.5z M20,17.6c0,0.2-0.2,0.4-0.4,0.4H4.4C4.2,18,4,17.8,4,17.6V6.4   C4,6.2,4.2,6,4.4,6h5.1c0.1,0,0.2,0,0.3,0.1l3.4,2.4c0.9,0.6,2,1,3.1,1h3.3c0.1,0,0.3,0.1,0.3,0.3V17.6z"/></g></svg>