<svg xmlns="http://www.w3.org/2000/svg" data-name="Layer 1" viewBox="0 0 100 100" x="0px" y="0px"><title>Artboard 3</title><path d="M87.5,39.56H81.13a1,1,0,0,1-.92-.62c-.31-.83-.65-1.66-1-2.47a1,1,0,0,1,.22-1.1l4.5-4.5a6,6,0,0,0,0-8.49L77.62,16.1a6,6,0,0,0-8.49,0l-4.5,4.5a1,1,0,0,1-1.1.22c-.81-.38-1.64-.72-2.47-1a1,1,0,0,1-.62-.92V12.5a6,6,0,0,0-6-6H45.56a6,6,0,0,0-6,6v6.37a1,1,0,0,1-.62.92c-.83.31-1.66.65-2.47,1a1,1,0,0,1-1.1-.22l-4.5-4.5a6,6,0,0,0-8.49,0L16.1,22.38a6,6,0,0,0,0,8.49l4.5,4.5a1,1,0,0,1,.22,1.1c-.38.81-.72,1.64-1,2.47a1,1,0,0,1-.92.62H12.5a6,6,0,0,0-6,6v8.88a6,6,0,0,0,6,6h6.37a1,1,0,0,1,.92.62c.31.83.65,1.66,1,2.47a1,1,0,0,1-.22,1.1l-4.5,4.5a6,6,0,0,0,0,8.49l6.28,6.28a6,6,0,0,0,8.49,0l4.5-4.5a1,1,0,0,1,1.1-.22c.81.38,1.64.72,2.47,1a1,1,0,0,1,.62.92V87.5a6,6,0,0,0,6,6h8.88a6,6,0,0,0,6-6V81.13a1,1,0,0,1,.62-.92c.83-.31,1.66-.65,2.47-1a1,1,0,0,1,1.1.22l4.5,4.5a6,6,0,0,0,8.49,0l6.28-6.28a6,6,0,0,0,0-8.49l-4.5-4.5a1,1,0,0,1-.22-1.1c.38-.81.72-1.64,1-2.47a1,1,0,0,1,.92-.62H87.5a6,6,0,0,0,6-6V45.56A6,6,0,0,0,87.5,39.56Zm4,14.88a4,4,0,0,1-4,4H81.13a3,3,0,0,0-2.8,1.93c-.28.78-.61,1.56-1,2.32A3,3,0,0,0,78,66l4.51,4.51a4,4,0,0,1,0,5.65L76.2,82.49a4,4,0,0,1-5.65,0L66,78a3,3,0,0,0-3.35-.61c-.76.35-1.54.68-2.32,1a3,3,0,0,0-1.93,2.8V87.5a4,4,0,0,1-4,4H45.56a4,4,0,0,1-4-4V81.13a3,3,0,0,0-1.93-2.8c-.78-.28-1.56-.61-2.32-1a2.92,2.92,0,0,0-1.22-.27A3,3,0,0,0,34,78l-4.51,4.51a4,4,0,0,1-5.65,0L17.51,76.2a4,4,0,0,1,0-5.65L22,66a3,3,0,0,0,.61-3.35c-.35-.76-.68-1.54-1-2.32a3,3,0,0,0-2.8-1.93H12.5a4,4,0,0,1-4-4V45.56a4,4,0,0,1,4-4h6.37a3,3,0,0,0,2.8-1.93c.28-.78.61-1.56,1-2.32A3,3,0,0,0,22,34l-4.51-4.51a4,4,0,0,1,0-5.65l6.29-6.29a4,4,0,0,1,5.65,0L34,22a3,3,0,0,0,3.35.61c.76-.35,1.54-.68,2.32-1a3,3,0,0,0,1.93-2.8V12.5a4,4,0,0,1,4-4h8.88a4,4,0,0,1,4,4v6.37a3,3,0,0,0,1.93,2.8c.78.28,1.56.61,2.32,1A3,3,0,0,0,66,22l4.51-4.51a4,4,0,0,1,5.65,0l6.29,6.29a4,4,0,0,1,0,5.65L78,34a3,3,0,0,0-.61,3.35c.35.76.68,1.54,1,2.32a3,3,0,0,0,2.8,1.93H87.5a4,4,0,0,1,4,4Z"/><path d="M50,32.5A17.5,17.5,0,1,0,67.5,50,17.52,17.52,0,0,0,50,32.5Zm0,33A15.5,15.5,0,1,1,65.5,50,15.51,15.51,0,0,1,50,65.5Z"/></svg>