<svg xmlns="http://www.w3.org/2000/svg" xmlns:xlink="http://www.w3.org/1999/xlink" version="1.1" x="0px" y="0px" viewBox="0 0 1024 1024" style="enable-background:new 0 0 1024 1024;" xml:space="preserve"><g><g><g><path d="M623.3,349c-25.5,0-51,0-76.5,0c-40.3,0-80.5,0-120.8,0c-10.2,0-20.8,0.9-30.9-0.4     c3.5,0.5,7.1,1,10.6,1.4c-3.1-0.5-6.1-1.3-9-2.4c3.2,1.3,6.4,2.7,9.6,4c-3.3-1.4-6.2-3.1-9.1-5.2c2.7,2.1,5.4,4.2,8.1,6.3     c-2.8-2.2-5.2-4.6-7.4-7.4c2.1,2.7,4.2,5.4,6.3,8.1c-2.1-2.8-3.8-5.8-5.2-9.1c1.3,3.2,2.7,6.4,4,9.6c-1.1-3-1.9-5.9-2.4-9     c0.5,3.5,1,7.1,1.4,10.6c-1.1-8.6-0.4-17.6-0.4-26.2c0-18,0-35.9,0-53.9c0-40.7,0-81.3,0-122c0-10.4-0.9-21.3,0.4-31.6     c-0.5,3.5-1,7.1-1.4,10.6c0.5-3.1,1.3-6.1,2.4-9c-1.3,3.2-2.7,6.4-4,9.6c1.4-3.3,3.1-6.2,5.2-9.1c-2.1,2.7-4.2,5.4-6.3,8.1     c2.2-2.8,4.6-5.2,7.4-7.4c-2.7,2.1-5.4,4.2-8.1,6.3c2.8-2.1,5.8-3.8,9.1-5.2c-3.2,1.3-6.4,2.7-9.6,4c3-1.1,5.9-1.9,9-2.4     c-3.5,0.5-7.1,1-10.6,1.4c8.6-1.1,17.6-0.4,26.2-0.4c18,0,35.9,0,53.9,0c40.7,0,81.3,0,122,0c10.4,0,21.3-0.9,31.6,0.4     c-3.5-0.5-7.1-1-10.6-1.4c3.1,0.5,6.1,1.3,9,2.4c-3.2-1.3-6.4-2.7-9.6-4c3.3,1.4,6.2,3.1,9.1,5.2c-2.7-2.1-5.4-4.2-8.1-6.3     c2.8,2.2,5.2,4.6,7.4,7.4c-2.1-2.7-4.2-5.4-6.3-8.1c2.1,2.8,3.8,5.8,5.2,9.1c-1.3-3.2-2.7-6.4-4-9.6c1.1,3,1.9,5.9,2.4,9     c-0.5-3.5-1-7.1-1.4-10.6c1.1,8.6,0.4,17.6,0.4,26.2c0,18,0,35.9,0,53.9c0,40.7,0,81.3,0,122c0,10.4,0.9,21.3-0.4,31.6     c0.5-3.5,1-7.1,1.4-10.6c-0.5,3.1-1.3,6.1-2.4,9c1.3-3.2,2.7-6.4,4-9.6c-1.4,3.3-3.1,6.2-5.2,9.1c2.1-2.7,4.2-5.4,6.3-8.1     c-2.2,2.8-4.6,5.2-7.4,7.4c2.7-2.1,5.4-4.2,8.1-6.3c-2.8,2.1-5.8,3.8-9.1,5.2c3.2-1.3,6.4-2.7,9.6-4c-3,1.1-5.9,1.9-9,2.4     c3.5-0.5,7.1-1,10.6-1.4C627,348.9,625.2,349,623.3,349c-10.4,0.2-20.9,4.3-28.3,11.7c-6.9,6.9-12.2,18.3-11.7,28.3     c1,21.4,17.6,40.4,40,40c14.4-0.3,29.6-3.9,41.7-12c11.7-7.8,22.5-18.2,28.5-31.1c5.9-12.6,8.8-25.3,8.8-39.2     c0-14.5,0-29.1,0-43.6c0-46.8,0-93.6,0-140.5c0-11.6,0.1-23.3,0-34.9c-0.2-21.9-9.1-44.6-26.1-58.9     c-15.5-13.2-33.6-20.5-54.1-20.5c-36.2-0.1-72.4,0-108.6,0c-37,0-74-0.1-111,0c-15.4,0-31.1,3.7-44.1,12.3     c-22.7,15.1-36.4,39.5-36.8,66.8c-0.1,10.9,0,21.7,0,32.6c0,46.6,0,93.1,0,139.7c0,15.3,0,30.6,0,45.9c0,9,0.5,18.3,3.3,26.9     c4.4,13.4,11.9,26.5,22.7,35.8c5.2,4.4,10.7,8.8,17,11.7c10.9,5.1,18.6,7.1,30.4,8.4c10.4,1.2,21.2,0.4,31.6,0.4     c21.6,0,43.3,0,64.9,0c41.4,0,82.8,0,124.1,0c2.5,0,5,0,7.5,0c20.9,0,41-18.4,40-40C662.4,367.4,645.8,349,623.3,349z"/></g></g><g><g><path d="M350.7,895.6c-25.5,0-51,0-76.5,0c-40.3,0-80.5,0-120.8,0c-10.2,0-20.8,0.9-30.9-0.4     c3.5,0.5,7.1,1,10.6,1.4c-3.1-0.5-6.1-1.3-9-2.4c3.2,1.3,6.4,2.7,9.6,4c-3.3-1.4-6.2-3.1-9.1-5.2c2.7,2.1,5.4,4.2,8.1,6.3     c-2.8-2.2-5.2-4.6-7.4-7.4c2.1,2.7,4.2,5.4,6.3,8.1c-2.1-2.8-3.8-5.8-5.2-9.1c1.3,3.2,2.7,6.4,4,9.6c-1.1-3-1.9-5.9-2.4-9     c0.5,3.5,1,7.1,1.4,10.6c-1.1-8.6-0.4-17.6-0.4-26.2c0-18,0-35.9,0-53.9c0-40.7,0-81.3,0-122c0-10.4-0.9-21.3,0.4-31.6     c-0.5,3.5-1,7.1-1.4,10.6c0.5-3.1,1.3-6.1,2.4-9c-1.3,3.2-2.7,6.4-4,9.6c1.4-3.3,3.1-6.2,5.2-9.1c-2.1,2.7-4.2,5.4-6.3,8.1     c2.2-2.8,4.6-5.2,7.4-7.4c-2.7,2.1-5.4,4.2-8.1,6.3c2.8-2.1,5.8-3.8,9.1-5.2c-3.2,1.3-6.4,2.7-9.6,4c3-1.1,5.9-1.9,9-2.4     c-3.5,0.5-7.1,1-10.6,1.4c8.6-1.1,17.6-0.4,26.2-0.4c18,0,35.9,0,53.9,0c40.7,0,81.3,0,122,0c10.4,0,21.3-0.9,31.6,0.4     c-3.5-0.5-7.1-1-10.6-1.4c3.1,0.5,6.1,1.3,9,2.4c-3.2-1.3-6.4-2.7-9.6-4c3.3,1.4,6.2,3.1,9.1,5.2c-2.7-2.1-5.4-4.2-8.1-6.3     c2.8,2.2,5.2,4.6,7.4,7.4c-2.1-2.7-4.2-5.4-6.3-8.1c2.1,2.8,3.8,5.8,5.2,9.1c-1.3-3.2-2.7-6.4-4-9.6c1.1,3,1.9,5.9,2.4,9     c-0.5-3.5-1-7.1-1.4-10.6c1.1,8.6,0.4,17.6,0.4,26.2c0,18,0,35.9,0,53.9c0,40.7,0,81.3,0,122c0,10.4,0.9,21.3-0.4,31.6     c0.5-3.5,1-7.1,1.4-10.6c-0.5,3.1-1.3,6.1-2.4,9c1.3-3.2,2.7-6.4,4-9.6c-1.4,3.3-3.1,6.2-5.2,9.1c2.1-2.7,4.2-5.4,6.3-8.1     c-2.2,2.8-4.6,5.2-7.4,7.4c2.7-2.1,5.4-4.2,8.1-6.3c-2.8,2.1-5.8,3.8-9.1,5.2c3.2-1.3,6.4-2.7,9.6-4c-3,1.1-5.9,1.9-9,2.4     c3.5-0.5,7.1-1,10.6-1.4C354.3,895.5,352.5,895.6,350.7,895.6c-10.4,0.2-20.9,4.3-28.3,11.7c-6.9,6.9-12.2,18.3-11.7,28.3     c1,21.4,17.6,40.4,40,40c14.4-0.3,29.6-3.9,41.7-12c11.7-7.8,22.5-18.2,28.5-31.1c5.9-12.6,8.8-25.3,8.8-39.2     c0-14.5,0-29.1,0-43.6c0-46.8,0-93.6,0-140.5c0-11.6,0.1-23.3,0-34.9c-0.2-21.9-9.1-44.6-26.1-58.9     C388.1,602.3,370,595,349.4,595c-36.2-0.1-72.4,0-108.6,0c-37,0-74-0.1-111,0c-15.4,0-31.1,3.7-44.1,12.3     c-22.7,15.1-36.4,39.5-36.8,66.8c-0.1,10.9,0,21.7,0,32.6c0,46.6,0,93.1,0,139.7c0,15.3,0,30.6,0,45.9c0,9,0.5,18.3,3.3,26.9     c4.4,13.4,11.9,26.5,22.7,35.8c5.2,4.4,10.7,8.8,17,11.7c10.9,5.1,18.6,7.1,30.4,8.4c10.4,1.2,21.2,0.4,31.6,0.4     c21.6,0,43.3,0,64.9,0c41.4,0,82.8,0,124.1,0c2.5,0,5,0,7.5,0c20.9,0,41-18.4,40-40C389.7,914,373.1,895.6,350.7,895.6z"/></g></g><g><g><path d="M896,895.6c-25.5,0-51,0-76.5,0c-40.3,0-80.5,0-120.8,0c-10.2,0-20.8,0.9-30.9-0.4     c3.5,0.5,7.1,1,10.6,1.4c-3.1-0.5-6.1-1.3-9-2.4c3.2,1.3,6.4,2.7,9.6,4c-3.3-1.4-6.2-3.1-9.1-5.2c2.7,2.1,5.4,4.2,8.1,6.3     c-2.8-2.2-5.2-4.6-7.4-7.4c2.1,2.7,4.2,5.4,6.3,8.1c-2.1-2.8-3.8-5.8-5.2-9.1c1.3,3.2,2.7,6.4,4,9.6c-1.1-3-1.9-5.9-2.4-9     c0.5,3.5,1,7.1,1.4,10.6c-1.1-8.6-0.4-17.6-0.4-26.2c0-18,0-35.9,0-53.9c0-40.7,0-81.3,0-122c0-10.4-0.9-21.3,0.4-31.6     c-0.5,3.5-1,7.1-1.4,10.6c0.5-3.1,1.3-6.1,2.4-9c-1.3,3.2-2.7,6.4-4,9.6c1.4-3.3,3.1-6.2,5.2-9.1c-2.1,2.7-4.2,5.4-6.3,8.1     c2.2-2.8,4.6-5.2,7.4-7.4c-2.7,2.1-5.4,4.2-8.1,6.3c2.8-2.1,5.8-3.8,9.1-5.2c-3.2,1.3-6.4,2.7-9.6,4c3-1.1,5.9-1.9,9-2.4     c-3.5,0.5-7.1,1-10.6,1.4c8.6-1.1,17.6-0.4,26.2-0.4c18,0,35.9,0,53.9,0c40.7,0,81.3,0,122,0c10.4,0,21.3-0.9,31.6,0.4     c-3.5-0.5-7.1-1-10.6-1.4c3.1,0.5,6.1,1.3,9,2.4c-3.2-1.3-6.4-2.7-9.6-4c3.3,1.4,6.2,3.1,9.1,5.2c-2.7-2.1-5.4-4.2-8.1-6.3     c2.8,2.2,5.2,4.6,7.4,7.4c-2.1-2.7-4.2-5.4-6.3-8.1c2.1,2.8,3.8,5.8,5.2,9.1c-1.3-3.2-2.7-6.4-4-9.6c1.1,3,1.9,5.9,2.4,9     c-0.5-3.5-1-7.1-1.4-10.6c1.1,8.6,0.4,17.6,0.4,26.2c0,18,0,35.9,0,53.9c0,40.7,0,81.3,0,122c0,10.4,0.9,21.3-0.4,31.6     c0.5-3.5,1-7.1,1.4-10.6c-0.5,3.1-1.3,6.1-2.4,9c1.3-3.2,2.7-6.4,4-9.6c-1.4,3.3-3.1,6.2-5.2,9.1c2.1-2.7,4.2-5.4,6.3-8.1     c-2.2,2.8-4.6,5.2-7.4,7.4c2.7-2.1,5.4-4.2,8.1-6.3c-2.8,2.1-5.8,3.8-9.1,5.2c3.2-1.3,6.4-2.7,9.6-4c-3,1.1-5.9,1.9-9,2.4     c3.5-0.5,7.1-1,10.6-1.4C899.7,895.5,897.9,895.6,896,895.6c-10.4,0.2-20.9,4.3-28.3,11.7c-6.9,6.9-12.2,18.3-11.7,28.3     c1,21.4,17.6,40.4,40,40c14.4-0.3,29.6-3.9,41.7-12c11.7-7.8,22.5-18.2,28.5-31.1c5.9-12.6,8.8-25.3,8.8-39.2     c0-14.5,0-29.1,0-43.6c0-46.8,0-93.6,0-140.5c0-11.6,0.1-23.3,0-34.9c-0.2-21.9-9.1-44.6-26.1-58.9     c-15.5-13.2-33.6-20.5-54.1-20.5c-36.2-0.1-72.4,0-108.6,0c-37,0-74-0.1-111,0c-15.4,0-31.1,3.7-44.1,12.3     c-22.7,15.1-36.4,39.5-36.8,66.8c-0.1,10.9,0,21.7,0,32.6c0,46.6,0,93.1,0,139.7c0,15.3,0,30.6,0,45.9c0,9,0.5,18.3,3.3,26.9     c4.4,13.4,11.9,26.5,22.7,35.8c5.2,4.4,10.7,8.8,17,11.7c10.9,5.1,18.6,7.1,30.4,8.4c10.4,1.2,21.2,0.4,31.6,0.4     c21.6,0,43.3,0,64.9,0c41.4,0,82.8,0,124.1,0c2.5,0,5,0,7.5,0c20.9,0,41-18.4,40-40C935,914,918.4,895.6,896,895.6z"/></g></g><g><g><path d="M280.1,635c0-25.7,0-51.4,0-77.1c0-4.7-0.2-9.5,0.4-14.2c-0.5,3.5-1,7.1-1.4,10.6c0.5-3.1,1.3-6.1,2.4-9     c-1.3,3.2-2.7,6.4-4,9.6c1.4-3.3,3.1-6.2,5.2-9.1c-2.1,2.7-4.2,5.4-6.3,8.1c2.2-2.8,4.6-5.2,7.4-7.4c-2.7,2.1-5.4,4.2-8.1,6.3     c2.8-2.1,5.8-3.8,9.1-5.2c-3.2,1.3-6.4,2.7-9.6,4c3-1.1,5.9-1.9,9-2.4c-3.5,0.5-7.1,1-10.6,1.4c5.5-0.7,11.3-0.4,16.8-0.4     c11.2,0,22.3,0,33.5,0c37.3,0,74.6,0,111.9,0c45.4,0,90.7,0,136.1,0c39.1,0,78.1,0,117.2,0c18.4,0,36.9-0.2,55.3,0     c2,0,4,0.1,6,0.4c-3.5-0.5-7.1-1-10.6-1.4c3.1,0.5,6.1,1.3,9,2.4c-3.2-1.3-6.4-2.7-9.6-4c3.3,1.4,6.2,3.1,9.1,5.2     c-2.7-2.1-5.4-4.2-8.1-6.3c2.8,2.2,5.2,4.6,7.4,7.4c-2.1-2.7-4.2-5.4-6.3-8.1c2.1,2.8,3.8,5.8,5.2,9.1c-1.3-3.2-2.7-6.4-4-9.6     c1.1,3,1.9,5.9,2.4,9c-0.5-3.5-1-7.1-1.4-10.6c1.3,10.6,0.4,21.7,0.4,32.3c0,15.9,0,31.8,0,47.6c0,3.8,0,7.6,0,11.4     c0,20.9,18.4,41,40,40c21.7-1,40-17.6,40-40c0-25.7,0-51.4,0-77.1c0-3.1,0.1-6.3,0-9.4c-0.5-20.7-8.7-41.1-23.6-55.6     c-15.5-15-35.8-22.7-57.2-22.7c-13.4,0-26.8,0-40.2,0c-26.4,0-52.8,0-79.2,0c-33.1,0-66.1,0-99.2,0c-33.8,0-67.6,0-101.4,0     c-28.5,0-57,0-85.4,0c-17.1,0-34.2,0-51.3,0c-2.6,0-5.3,0-7.9,0c-43.1,1-77.7,35.9-78.3,79c-0.4,25.7,0,51.4,0,77.1     c0,2.9,0,5.8,0,8.7c0,20.9,18.4,41,40,40C261.8,674,280.1,657.4,280.1,635L280.1,635z"/></g></g><g><g><path d="M472,389c0,35.4,0,70.7,0,106.1c0,5,0,10,0,15c0,20.9,18.4,41,40,40c21.7-1,40-17.6,40-40     c0-35.4,0-70.7,0-106.1c0-5,0-10,0-15c0-20.9-18.4-41-40-40C490.3,350,472,366.6,472,389L472,389z"/></g></g></g></svg>